<svg viewBox="330.9428 272.7024 363.1143 76.5952" width="5000" height="1054.6982038438034" xmlns="http://www.w3.org/2000/svg" xmlns:xlink="http://www.w3.org/1999/xlink" preserveAspectRatio="none"><defs></defs><style>.aD6z1nYkhcolor {fill:#E7E7E7;fill-opacity:1;}.aD6z1nYkhstrokeColor-str {stroke:#000000;stroke-opacity:1;}.aIptOCySncolors-0 {fill:#A5A5A5;fill-opacity:1;}.aIptOCySncolors-1 {fill:#3E3E3E;fill-opacity:1;}.ashadownFa9ecwKju-floo {flood-color:#000000;flood-opacity:1;}</style><defs>
      <filter
        x="-1000"
        y="-1000"
        width="5000"
        height="5000"
        id="sITyqjIQo"
        filterUnits="userSpaceOnUse"
        primitiveUnits="userSpaceOnUse"
        color-interpolation-filters="sRGB">
        <feMerge><feMergeNode in="SourceGraphic" /></feMerge>
      </filter></defs><g opacity="1" transform="rotate(0 330.9428 272.7024)">
<svg width="67.9016" height="76.5952" x="330.9428" y="272.7024" version="1.1" preserveAspectRatio="none" viewBox="28.999996185302734 20 141.84005737304688 160">
  <g transform="matrix(1 0 0 1 0 0)" ><g><path d="M30.534 111.496c3.073-5.296 9.77-7.182 15.134-4.34l.39.216 32.48 18.846a37.863 37.863 0 0 1 18.853 32.012l.007.735V180l-49.78-28.763a37.259 37.259 0 0 1-18.611-31.522l-.007-.738v-1.781c0-2.002.529-3.968 1.534-5.7zm138.649-.011a11.356 11.356 0 0 1 1.534 5.7v1.781a37.258 37.258 0 0 1-18.618 32.26l-49.78 28.763v-21.035a37.86 37.86 0 0 1 18.859-32.747l32.48-18.846c5.426-3.148 12.376-1.302 15.525 4.124zM101.647 20v21.155a37.86 37.86 0 0 1-18.919 32.782L29.97 104.418V83.386a37.863 37.863 0 0 1 18.862-32.749L101.647 20z" data-color="1" class="aIptOCySncolors-0"></path><path opacity=".3" d="M78.539 126.219l-32.48-18.846c-5.426-3.148-12.376-1.302-15.524 4.124a11.356 11.356 0 0 0-1.534 5.7v1.781a37.258 37.258 0 0 0 18.618 32.26L97.398 180v-21.035a37.859 37.859 0 0 0-18.859-32.746z" data-color="2" class="aIptOCySncolors-1"></path><path opacity=".6" d="M121.178 126.208l32.48-18.846c5.426-3.148 12.376-1.302 15.524 4.124a11.356 11.356 0 0 1 1.534 5.7v1.781a37.258 37.258 0 0 1-18.618 32.26l-49.78 28.763v-21.035a37.861 37.861 0 0 1 18.86-32.747z" data-color="2" class="aIptOCySncolors-1"></path><path d="M132.804 61.335v-21.57l19.218 11.183a37.859 37.859 0 0 1 18.818 32.794l-.04 21.308-18.962-10.868a37.858 37.858 0 0 1-19.034-32.847z" data-color="2" class="aIptOCySncolors-1"></path></g></g>
</svg>
</g><g opacity="1" transform="rotate(0 417.2272 284.1917)">
<svg width="276.8299" height="53.0111" x="417.2272" y="284.1917" version="1.1" preserveAspectRatio="none" viewBox="4 -31.24 164.60000000000002 31.52">
  <g transform="matrix(1 0 0 1 0 0)" class="aD6z1nYkhcolor"><path id="id-D6z1nYkh" d="M4-30.04Q4-30.56 4.34-30.90Q4.68-31.24 5.20-31.24L5.20-31.24Q5.72-31.24 6.06-30.90Q6.40-30.56 6.40-30.04L6.40-30.04L6.40-1.20Q6.40-0.68 6.06-0.34Q5.72 0 5.20 0L5.20 0Q4.68 0 4.34-0.34Q4-0.68 4-1.20L4-1.20L4-30.04Z M44.48-31.24Q45-31.24 45.32-30.90Q45.64-30.56 45.64-30.04L45.64-30.04L45.64-1.20Q45.64-0.68 45.32-0.34Q45 0 44.48 0L44.48 0Q43.96 0 43.60-0.34Q43.24-0.68 43.24-1.20L43.24-1.20L43.24-25.72L31.08-0.96Q30.80-0.40 30.04-0.40L30.04-0.40Q29.32-0.40 28.92-1.16L28.92-1.16L16.80-25.36L16.80-1.20Q16.80-0.68 16.46-0.34Q16.12 0 15.60 0L15.60 0Q15.08 0 14.74-0.34Q14.40-0.68 14.40-1.20L14.40-1.20L14.40-30.04Q14.40-30.56 14.74-30.90Q15.08-31.24 15.60-31.24L15.60-31.24Q16.40-31.24 16.68-30.64L16.68-30.64L30.12-4.08L43.40-30.64Q43.76-31.24 44.48-31.24L44.48-31.24Z M74.08-2.40Q74.56-2.40 74.92-2.04Q75.28-1.68 75.28-1.20L75.28-1.20Q75.28-0.68 74.92-0.34Q74.56 0 74.08 0L74.08 0L54.84 0Q54.32 0 53.98-0.34Q53.64-0.68 53.64-1.20L53.64-1.20L53.64-30.04Q53.64-30.56 53.98-30.90Q54.32-31.24 54.84-31.24L54.84-31.24L74.08-31.24Q74.56-31.24 74.92-30.90Q75.28-30.56 75.28-30.04L75.28-30.04Q75.28-29.56 74.92-29.20Q74.56-28.84 74.08-28.84L74.08-28.84L56.04-28.84L56.04-16.84L69.28-16.84Q69.80-16.84 70.14-16.50Q70.48-16.16 70.48-15.64L70.48-15.64Q70.48-15.12 70.14-14.76Q69.80-14.40 69.28-14.40L69.28-14.40L56.04-14.40L56.04-2.40L74.08-2.40Z M102.40-22.16Q105.32-22.16 107.62-20.96Q109.92-19.76 111.22-17.46Q112.52-15.16 112.52-11.96L112.52-11.96L112.52-1.20Q112.52-0.68 112.18-0.34Q111.84 0 111.32 0L111.32 0Q110.80 0 110.46-0.34Q110.12-0.68 110.12-1.20L110.12-1.20L110.12-11.96Q110.12-15.76 107.98-17.76Q105.84-19.76 102.40-19.76L102.40-19.76Q100.28-19.76 98.54-18.94Q96.80-18.12 95.80-16.66Q94.80-15.20 94.80-13.44L94.80-13.44L94.80-1.20Q94.80-0.68 94.48-0.34Q94.16 0 93.60 0L93.60 0Q93.08 0 92.74-0.34Q92.40-0.68 92.40-1.20L92.40-1.20L92.40-30.04Q92.40-30.60 92.74-30.92Q93.08-31.24 93.60-31.24L93.60-31.24Q94.16-31.24 94.48-30.92Q94.80-30.60 94.80-30.04L94.80-30.04L94.80-18.60Q96.16-20.28 98.12-21.22Q100.08-22.16 102.40-22.16L102.40-22.16Z M137.84-21.88Q138.40-21.88 138.72-21.56Q139.04-21.24 139.04-20.68L139.04-20.68L139.04-1.20Q139.04-0.68 138.72-0.34Q138.40 0 137.84 0L137.84 0Q137.32 0 136.98-0.34Q136.64-0.68 136.64-1.20L136.64-1.20L136.64-3.28Q135.28-1.60 133.32-0.66Q131.36 0.28 129.04 0.28L129.04 0.28Q126.12 0.28 123.82-0.92Q121.52-2.12 120.22-4.42Q118.92-6.72 118.92-9.92L118.92-9.92L118.92-20.68Q118.92-21.20 119.26-21.54Q119.60-21.88 120.12-21.88L120.12-21.88Q120.64-21.88 120.98-21.54Q121.32-21.20 121.32-20.68L121.32-20.68L121.32-9.92Q121.32-6.12 123.46-4.12Q125.60-2.12 129.04-2.12L129.04-2.12Q131.16-2.12 132.90-2.94Q134.64-3.76 135.64-5.22Q136.64-6.68 136.64-8.44L136.64-8.44L136.64-20.68Q136.64-21.24 136.98-21.56Q137.32-21.88 137.84-21.88L137.84-21.88Z M147.44-31.24Q146.88-31.24 146.56-30.92Q146.24-30.60 146.24-30.04L146.24-30.04L146.24-10.80L146.24-10.72Q146.28-7.64 147.76-5.12Q149.24-2.60 151.78-1.18Q154.32 0.24 157.40 0.24L157.40 0.24Q160.56 0.24 163.12-1.22Q165.68-2.68 167.14-5.24Q168.60-7.80 168.60-10.96L168.60-10.96Q168.60-14.08 167.14-16.64Q165.68-19.20 163.12-20.66Q160.56-22.12 157.40-22.12L157.40-22.12Q154.56-22.12 152.26-20.90Q149.96-19.68 148.64-17.56L148.64-17.56L148.64-30.04Q148.64-30.60 148.30-30.92Q147.96-31.24 147.44-31.24L147.44-31.24ZM157.40-2Q154.92-2 152.92-3.18Q150.92-4.36 149.78-6.40Q148.64-8.44 148.64-10.96L148.64-10.96Q148.64-13.48 149.78-15.52Q150.92-17.56 152.92-18.72Q154.92-19.88 157.40-19.88L157.40-19.88Q159.88-19.88 161.88-18.72Q163.88-17.56 165.04-15.52Q166.20-13.48 166.20-10.96L166.20-10.96Q166.20-8.44 165.04-6.40Q163.88-4.36 161.88-3.18Q159.88-2 157.40-2L157.40-2Z"/></g>
</svg>
</g></svg>