<svg viewBox="228.5 230.4864 380 124.0273" width="5000" height="1631.9381578947366" xmlns="http://www.w3.org/2000/svg" xmlns:xlink="http://www.w3.org/1999/xlink" preserveAspectRatio="none"><defs></defs><style>.aD-YM9nyY4color {fill:#0C0C0C;fill-opacity:1;}.aD-YM9nyY4strokeColor-str {stroke:#929292;stroke-opacity:1;}.aD6z1nYkhcolor {fill:#0C0C0C;fill-opacity:1;}.aD6z1nYkhstrokeColor-str {stroke:#929292;stroke-opacity:1;}.aIptOCySncolors-0 {fill:#0C0C0C;fill-opacity:1;}.aIptOCySncolors-1 {fill:#DFDFDF;fill-opacity:1;}.aIptOCySncolors-2 {fill:#929292;fill-opacity:1;}.aIptOCySncolors-3 {fill:#D7D6D6;fill-opacity:1;}.aIptOCySncolors-4 {fill:#C0C0C0;fill-opacity:1;}.aIptOCySncolors-5 {fill:#6D6D6D;fill-opacity:1;}.aIptOCySncolors-6 {fill:#454545;fill-opacity:1;}.aIptOCySncolors-7 {fill:#282828;fill-opacity:1;}.atBXipXk0bfillColor {fill:#F1F1F1;fill-opacity:1;}.atBXipXk0bstrokeColor-str {stroke:#0C0C0C;stroke-opacity:1;}</style><defs>
      <filter
        x="-1000"
        y="-1000"
        width="5000"
        height="5000"
        id="global"
        filterUnits="userSpaceOnUse"
        primitiveUnits="userSpaceOnUse"
        color-interpolation-filters="sRGB">
        <feColorMatrix
                        type="matrix"
                        values="0.3333 0.3333 0.3333 0 0 0.3333 0.3333 0.3333 0 0 0.3333 0.3333 0.3333 0 0 0 0 0 1 0"/><feColorMatrix
                        type="matrix"
                        values="-1 0 0 0 1 0 -1 0 0 1 0 0 -1 0 1 0 0 0 1 0"/>
      </filter></defs><g filter="url(#global)"><g opacity="1" transform="rotate(0 228.5 240.278)">
<svg width="153.5435" height="104.4441" x="228.5" y="240.278" version="1.1" preserveAspectRatio="none" viewBox="20.532331466674805 45.94729232788086 158.92825317382812 108.10693359375">
  <g transform="matrix(1 0 0 1 0 0)" ><g><path d="M82.935 75.852l44.836 20.692a4.833 4.833 0 0 0 4.048 0l44.836-20.692a4.828 4.828 0 0 0 0-8.768l-44.836-20.692a4.826 4.826 0 0 0-4.047 0L82.935 67.083a4.828 4.828 0 0 0 0 8.769zm46.86-19.759l33.312 15.374-33.312 15.374-33.312-15.374 33.312-15.374z" data-color="1" class="aIptOCySncolors-0"></path><path d="M172.608 95.616l-42.813 19.758-42.813-19.758a4.83 4.83 0 0 0-4.047 8.769l44.836 20.692a4.833 4.833 0 0 0 4.048 0l44.836-20.692a4.83 4.83 0 0 0-4.047-8.769z" data-color="1" class="aIptOCySncolors-0"></path><path d="M172.608 124.149l-42.813 19.758-42.813-19.758a4.828 4.828 0 1 0-4.047 8.769l44.836 20.692a4.833 4.833 0 0 0 4.048 0l44.836-20.692a4.83 4.83 0 0 0-4.047-8.769z" data-color="1" class="aIptOCySncolors-0"></path><path d="M65.095 95.171H25.368a4.829 4.829 0 1 0 0 9.658h39.727a4.829 4.829 0 1 0 0-9.658z" data-color="1" class="aIptOCySncolors-0"></path><path d="M65.095 76.446H37.44a4.829 4.829 0 1 0 0 9.658h27.655a4.829 4.829 0 1 0 0-9.658z" data-color="1" class="aIptOCySncolors-0"></path><path d="M65.095 113.897H49.512a4.829 4.829 0 1 0 0 9.658h15.583a4.829 4.829 0 1 0 0-9.658z" data-color="1" class="aIptOCySncolors-0"></path></g></g>
</svg>
</g><g opacity="1" transform="rotate(0 423.8211 240.278)">
<svg width="184.6789" height="78.3331" x="423.8211" y="240.278" version="1.1" preserveAspectRatio="none" viewBox="0.8 -31.28 91.48 38.8">
  <g transform="matrix(1 0 0 1 0 0)" class="aD6z1nYkhcolor"><path id="id-D6z1nYkh5" d="M11.52-31.28Q14-31.28 15.80-29.96L15.80-29.96Q16.40-29.48 16.78-28.70Q17.16-27.92 17.16-26.96L17.16-26.96Q17.16-25.84 16.36-25.02Q15.56-24.20 14.32-24.20L14.32-24.20Q12.96-24.20 12.12-24.96Q11.28-25.72 11.28-27.04L11.28-27.04Q11.28-28.08 11.88-28.88Q12.48-29.68 13.64-30L13.64-30Q13.52-30.24 13.14-30.40Q12.76-30.56 12.20-30.56L12.20-30.56Q10.68-30.56 10.04-29.52L10.04-29.52Q9.60-28.92 9.44-27.76Q9.28-26.60 9.28-24.28L9.28-24.28L9.28-20.64L13.56-20.64L13.56-19.84L9.28-19.84L9.28-4.12Q9.28-2.28 10.22-1.56Q11.16-0.84 13.04-0.84L13.04-0.84L13.04 0L11.92-0.04Q7.48-0.16 6.16-0.16L6.16-0.16Q4.96-0.16 0.96 0L0.96 0L0.96-0.84Q2.40-0.84 2.96-1.46Q3.52-2.08 3.52-3.72L3.52-3.72L3.52-19.84L0.80-19.84L0.80-20.64L3.52-20.64Q3.52-24.12 4.08-26.02Q4.64-27.92 6.04-29.28L6.04-29.28Q6.92-30.16 8.40-30.72Q9.88-31.28 11.52-31.28L11.52-31.28Z M20.32 0.28Q17.76 0.28 16.50-1.04Q15.24-2.36 15.24-4.52L15.24-4.52Q15.24-6.32 16.18-7.50Q17.12-8.68 18.46-9.32Q19.80-9.96 21.88-10.68L21.88-10.68Q24.08-11.44 25.10-12.06Q26.12-12.68 26.12-13.76L26.12-13.76L26.12-16.88Q26.12-18.56 25.34-19.50Q24.56-20.44 22.92-20.44L22.92-20.44Q21-20.44 20-19.48L20-19.48Q21.12-19.08 21.74-18.28Q22.36-17.48 22.36-16.40L22.36-16.40Q22.36-15.04 21.44-14.24Q20.52-13.44 19.20-13.44L19.20-13.44Q17.80-13.44 17.04-14.32Q16.28-15.20 16.28-16.52L16.28-16.52Q16.28-17.64 16.82-18.42Q17.36-19.20 18.48-19.88L18.48-19.88Q19.56-20.52 21.14-20.88Q22.72-21.24 24.60-21.24L24.60-21.24Q26.56-21.24 28-20.84Q29.44-20.44 30.40-19.48L30.40-19.48Q31.28-18.60 31.58-17.32Q31.88-16.04 31.88-13.84L31.88-13.84L31.88-2.96Q31.88-2 32.06-1.60Q32.24-1.20 32.76-1.20L32.76-1.20Q33.36-1.20 34.20-1.88L34.20-1.88L34.60-1.20Q32.80 0.28 30.20 0.28L30.20 0.28Q28 0.28 27.12-0.60Q26.24-1.48 26.20-2.96L26.20-2.96Q24.20 0.28 20.32 0.28L20.32 0.28ZM23.40-2.28Q24.96-2.28 26.12-3.92L26.12-3.92L26.12-12.12Q25.64-11.32 24.08-10.36L24.08-10.36Q22.52-9.36 21.72-8.36Q20.92-7.36 20.92-5.48L20.92-5.48Q20.92-3.84 21.60-3.06Q22.28-2.28 23.40-2.28L23.40-2.28Z M49.52-21.24Q51.32-21.24 52.24-20.16Q53.16-19.08 53.16-17.56L53.16-17.56Q53.16-16.08 52.30-15.14Q51.44-14.20 50.04-14.20L50.04-14.20Q48.68-14.20 47.88-14.90Q47.08-15.60 47.08-16.76L47.08-16.76Q47.08-18.68 48.84-19.88L48.84-19.88Q48.68-19.92 48.36-19.92L48.36-19.92Q47.96-19.92 47.72-19.84L47.72-19.84Q46.20-19.60 45.14-18Q44.08-16.40 44.08-14.72L44.08-14.72L44.08-4.12Q44.08-2.28 44.98-1.56Q45.88-0.84 47.84-0.84L47.84-0.84L47.84 0Q47.28 0 46.92-0.04L46.92-0.04Q42.84-0.16 41.48-0.16L41.48-0.16Q40.40-0.16 36.56-0.04L36.56-0.04Q36.24 0 35.76 0L35.76 0L35.76-0.84Q37.20-0.84 37.76-1.46Q38.32-2.08 38.32-3.72L38.32-3.72L38.32-16.32Q38.32-18.16 37.76-19Q37.20-19.84 35.76-19.84L35.76-19.84L35.76-20.68Q37.04-20.56 38.24-20.56L38.24-20.56Q41.80-20.56 44.08-21.12L44.08-21.12L44.08-17.40Q44.84-19.12 46.28-20.18Q47.72-21.24 49.52-21.24L49.52-21.24Z M73.40-16.84Q72.60-16.84 72.04-17.38Q71.48-17.92 71.48-18.92L71.48-18.92Q71.48-19.88 71.96-20.88L71.96-20.88Q71-20.48 70.38-19.98Q69.76-19.48 69.32-18.72L69.32-18.72Q70.56-17.24 70.56-14.88L70.56-14.88Q70.56-11.72 68.38-10.12Q66.20-8.52 62.60-8.52L62.60-8.52L61.88-8.52Q60.24-7.56 60.24-6.40L60.24-6.40Q60.24-5.12 61.84-5.12L61.84-5.12L66.20-5.12Q69.72-5.12 71.82-3.82Q73.92-2.52 73.92 0.16L73.92 0.16Q73.92 2.20 72.62 3.86Q71.32 5.52 68.68 6.52Q66.04 7.52 62.20 7.52L62.20 7.52Q58.32 7.52 55.98 6.54Q53.64 5.56 53.64 3.72L53.64 3.72Q53.64 2.48 54.76 1.50Q55.88 0.52 58.08-0.04L58.08-0.04L58.44 0.60Q57 1.80 57 3.36L57 3.36Q57 5.04 58.52 5.94Q60.04 6.84 62.72 6.84L62.72 6.84Q65.52 6.84 67.26 5.72Q69 4.60 69 2.56L69 2.56Q69 1.24 68.02 0.48Q67.04-0.28 64.60-0.28L64.60-0.28L62.12-0.28Q59.56-0.28 58.12-1.14Q56.68-2 56.68-3.76L56.68-3.76Q56.68-5.24 57.72-6.40Q58.76-7.56 60.88-8.64L60.88-8.64Q58-9 56.32-10.56Q54.64-12.12 54.64-14.88L54.64-14.88Q54.64-18.04 56.82-19.64Q59-21.24 62.60-21.24L62.60-21.24Q66.60-21.24 68.72-19.36L68.72-19.36Q69.48-20.44 70.60-21.08Q71.72-21.72 72.88-21.72L72.88-21.72Q74.08-21.72 74.78-21.02Q75.48-20.32 75.48-19.20L75.48-19.20Q75.48-18.08 74.86-17.46Q74.24-16.84 73.40-16.84L73.40-16.84ZM62.60-9.24Q63.72-9.24 64.30-10.52Q64.88-11.80 64.88-14.88L64.88-14.88Q64.88-17.96 64.30-19.24Q63.72-20.52 62.60-20.52L62.60-20.52Q61.48-20.52 60.90-19.24Q60.32-17.96 60.32-14.88L60.32-14.88Q60.32-11.80 60.90-10.52Q61.48-9.24 62.60-9.24L62.60-9.24Z M84.16-21.24Q85.68-21.24 86.96-20.86Q88.24-20.48 88.92-20L88.92-20Q89.32-19.72 89.64-19.72L89.64-19.72Q90-19.72 90.26-20.10Q90.52-20.48 90.60-21.20L90.60-21.20L91.44-21.20Q91.28-19.16 91.28-14.16L91.28-14.16L90.44-14.16Q90.08-16.80 88.86-18.58Q87.64-20.36 85.32-20.36L85.32-20.36Q84.12-20.36 83.34-19.68Q82.56-19 82.56-17.80L82.56-17.80Q82.56-16.44 83.48-15.46Q84.40-14.48 86.36-13.08L86.36-13.08L87.52-12.24Q89.96-10.40 91.12-8.96Q92.28-7.52 92.28-5.36L92.28-5.36Q92.28-3.60 91.26-2.24Q90.24-0.88 88.52-0.16Q86.80 0.56 84.72 0.56L84.72 0.56Q82.52 0.56 80.96-0.28L80.96-0.28Q79.68-0.92 79.12-1.12L79.12-1.12Q78.72-1.24 78.42-0.86Q78.12-0.48 77.96 0.28L77.96 0.28L77.12 0.28Q77.28-2 77.28-7.72L77.28-7.72L78.12-7.72Q78.92-0.36 83.52-0.36L83.52-0.36Q84.68-0.36 85.50-1.06Q86.32-1.76 86.32-3.20L86.32-3.20Q86.32-4.32 85.82-5.20Q85.32-6.08 84.56-6.76Q83.80-7.44 82.28-8.64L82.28-8.64Q80.48-10.08 79.54-10.96Q78.60-11.84 77.94-13.04Q77.28-14.24 77.28-15.72L77.28-15.72Q77.28-18.28 79.28-19.76Q81.28-21.24 84.16-21.24L84.16-21.24Z"/></g>
</svg>
</g><g opacity="1" transform="rotate(0 423.8211 331.6666)">
<svg width="160.0817" height="13.0555" x="423.8211" y="331.6666" version="1.1" preserveAspectRatio="none" viewBox="4.2 -30.28 469.48 38.28">
  <g transform="matrix(1 0 0 1 0 0)" class="aD-YM9nyY4color"><path id="id-D-YM9nyY421" d="M4.20 0L4.20-28L8.20-28L8.20-3.48L23.36-3.48L23.36 0L4.20 0Z M47.48-10.48Q47.48-10.04 47.40-9.32L47.40-9.32L30.20-9.32Q30.56-6.52 32.66-4.82Q34.76-3.12 37.88-3.12L37.88-3.12Q41.68-3.12 44-5.68L44-5.68L46.12-3.20Q44.68-1.52 42.54-0.64Q40.40 0.24 37.76 0.24L37.76 0.24Q34.40 0.24 31.80-1.14Q29.20-2.52 27.78-5Q26.36-7.48 26.36-10.60L26.36-10.60Q26.36-13.68 27.74-16.16Q29.12-18.64 31.54-20.02Q33.96-21.40 37-21.40L37-21.40Q40.04-21.40 42.42-20.02Q44.80-18.64 46.14-16.16Q47.48-13.68 47.48-10.48L47.48-10.48ZM37-18.16Q34.24-18.16 32.38-16.48Q30.52-14.80 30.20-12.08L30.20-12.08L43.80-12.08Q43.48-14.76 41.62-16.46Q39.76-18.16 37-18.16L37-18.16Z M60.08 0.24Q57.48 0.24 55.08-0.46Q52.68-1.16 51.32-2.24L51.32-2.24L52.92-5.28Q54.32-4.28 56.32-3.68Q58.32-3.08 60.36-3.08L60.36-3.08Q65.40-3.08 65.40-5.96L65.40-5.96Q65.40-6.92 64.72-7.48Q64.04-8.04 63.02-8.30Q62-8.56 60.12-8.88L60.12-8.88Q57.56-9.28 55.94-9.80Q54.32-10.32 53.16-11.56Q52-12.80 52-15.04L52-15.04Q52-17.92 54.40-19.66Q56.80-21.40 60.84-21.40L60.84-21.40Q62.96-21.40 65.08-20.88Q67.20-20.36 68.56-19.48L68.56-19.48L66.92-16.44Q64.32-18.12 60.80-18.12L60.80-18.12Q58.36-18.12 57.08-17.32Q55.80-16.52 55.80-15.20L55.80-15.20Q55.80-14.16 56.52-13.56Q57.24-12.96 58.30-12.68Q59.36-12.40 61.28-12.04L61.28-12.04Q63.84-11.60 65.42-11.10Q67-10.60 68.12-9.40Q69.24-8.20 69.24-6.04L69.24-6.04Q69.24-3.16 66.78-1.46Q64.32 0.24 60.08 0.24L60.08 0.24Z M107.52-24.52L91.76-24.52L91.76-14.76L105.80-14.76L105.80-11.32L91.76-11.32L91.76 0L87.76 0L87.76-28L107.52-28L107.52-24.52Z M120.76-21.40Q125.16-21.40 127.50-19.24Q129.84-17.08 129.84-12.80L129.84-12.80L129.84 0L126.20 0L126.20-2.80Q125.24-1.32 123.46-0.54Q121.68 0.24 119.24 0.24L119.24 0.24Q115.68 0.24 113.54-1.48Q111.40-3.20 111.40-6L111.40-6Q111.40-8.80 113.44-10.50Q115.48-12.20 119.92-12.20L119.92-12.20L126.00-12.20L126.00-12.96Q126.00-15.44 124.56-16.76Q123.12-18.08 120.32-18.08L120.32-18.08Q118.44-18.08 116.64-17.46Q114.84-16.84 113.60-15.80L113.60-15.80L112.00-18.68Q113.64-20 115.92-20.70Q118.20-21.40 120.76-21.40L120.76-21.40ZM119.88-2.72Q122.08-2.72 123.68-3.70Q125.28-4.68 126.00-6.48L126.00-6.48L126.00-9.44L120.08-9.44Q115.20-9.44 115.20-6.16L115.20-6.16Q115.20-4.56 116.44-3.64Q117.68-2.72 119.88-2.72L119.88-2.72Z M141.84-17.64Q142.84-19.48 144.80-20.44Q146.76-21.40 149.56-21.40L149.56-21.40L149.56-17.68Q149.24-17.72 148.68-17.72L148.68-17.72Q145.56-17.72 143.78-15.86Q142-14 142-10.56L142-10.56L142 0L138.16 0L138.16-21.20L141.84-21.20L141.84-17.64Z M163.16-21.40Q167.56-21.40 169.90-19.24Q172.24-17.08 172.24-12.80L172.24-12.80L172.24 0L168.60 0L168.60-2.80Q167.64-1.32 165.86-0.54Q164.08 0.24 161.64 0.24L161.64 0.24Q158.08 0.24 155.94-1.48Q153.80-3.20 153.80-6L153.80-6Q153.80-8.80 155.84-10.50Q157.88-12.20 162.32-12.20L162.32-12.20L168.40-12.20L168.40-12.96Q168.40-15.44 166.96-16.76Q165.52-18.08 162.72-18.08L162.72-18.08Q160.84-18.08 159.04-17.46Q157.24-16.84 156-15.80L156-15.80L154.40-18.68Q156.04-20 158.32-20.70Q160.60-21.40 163.16-21.40L163.16-21.40ZM162.28-2.72Q164.48-2.72 166.08-3.70Q167.68-4.68 168.40-6.48L168.40-6.48L168.40-9.44L162.48-9.44Q157.60-9.44 157.60-6.16L157.60-6.16Q157.60-4.56 158.84-3.64Q160.08-2.72 162.28-2.72L162.28-2.72Z M197.32-21.20L200.96-21.20L200.96-2.88Q200.96 2.68 198.20 5.34Q195.44 8 189.96 8L189.96 8Q186.96 8 184.24 7.18Q181.52 6.36 179.84 4.84L179.84 4.84L181.68 1.88Q183.16 3.16 185.34 3.90Q187.52 4.64 189.84 4.64L189.84 4.64Q193.56 4.64 195.34 2.88Q197.12 1.12 197.12-2.48L197.12-2.48L197.12-4.16Q195.76-2.52 193.78-1.70Q191.80-0.88 189.48-0.88L189.48-0.88Q186.44-0.88 183.98-2.18Q181.52-3.48 180.12-5.82Q178.72-8.16 178.72-11.16L178.72-11.16Q178.72-14.16 180.12-16.50Q181.52-18.84 183.98-20.12Q186.44-21.40 189.48-21.40L189.48-21.40Q191.88-21.40 193.94-20.52Q196.00-19.64 197.32-17.92L197.32-17.92L197.32-21.20ZM189.92-4.24Q192.00-4.24 193.66-5.12Q195.32-6 196.26-7.58Q197.20-9.16 197.20-11.16L197.20-11.16Q197.20-14.24 195.16-16.14Q193.12-18.04 189.92-18.04L189.92-18.04Q186.68-18.04 184.64-16.14Q182.60-14.24 182.60-11.16L182.60-11.16Q182.60-9.16 183.54-7.58Q184.48-6 186.14-5.12Q187.80-4.24 189.92-4.24L189.92-4.24Z M218.56 0.24Q215.40 0.24 212.88-1.16Q210.36-2.56 208.94-5.02Q207.52-7.48 207.52-10.60L207.52-10.60Q207.52-13.72 208.94-16.18Q210.36-18.64 212.88-20.02Q215.40-21.40 218.56-21.40L218.56-21.40Q221.72-21.40 224.22-20.02Q226.72-18.64 228.14-16.18Q229.56-13.72 229.56-10.60L229.56-10.60Q229.56-7.48 228.14-5.02Q226.72-2.56 224.22-1.16Q221.72 0.24 218.56 0.24L218.56 0.24ZM218.56-3.12Q220.60-3.12 222.22-4.06Q223.84-5 224.76-6.70Q225.68-8.40 225.68-10.60L225.68-10.60Q225.68-12.80 224.76-14.50Q223.84-16.20 222.22-17.12Q220.60-18.04 218.56-18.04L218.56-18.04Q216.52-18.04 214.90-17.12Q213.28-16.20 212.34-14.50Q211.40-12.80 211.40-10.60L211.40-10.60Q211.40-8.40 212.34-6.70Q213.28-5 214.90-4.06Q216.52-3.12 218.56-3.12L218.56-3.12Z M261.12 0.32Q256.92 0.32 253.54-1.54Q250.16-3.40 248.24-6.66Q246.32-9.92 246.32-14L246.32-14Q246.32-18.08 248.24-21.34Q250.16-24.60 253.56-26.46Q256.96-28.32 261.16-28.32L261.16-28.32Q264.44-28.32 267.16-27.22Q269.88-26.12 271.80-23.96L271.80-23.96L269.20-21.44Q266.04-24.76 261.32-24.76L261.32-24.76Q258.20-24.76 255.68-23.36Q253.16-21.96 251.74-19.50Q250.32-17.04 250.32-14L250.32-14Q250.32-10.96 251.74-8.50Q253.16-6.04 255.68-4.64Q258.20-3.24 261.32-3.24L261.32-3.24Q266-3.24 269.20-6.60L269.20-6.60L271.80-4.08Q269.88-1.92 267.14-0.80Q264.40 0.32 261.12 0.32L261.12 0.32Z M286.36 0.24Q283.20 0.24 280.68-1.16Q278.16-2.56 276.74-5.02Q275.32-7.48 275.32-10.60L275.32-10.60Q275.32-13.72 276.74-16.18Q278.16-18.64 280.68-20.02Q283.20-21.40 286.36-21.40L286.36-21.40Q289.52-21.40 292.02-20.02Q294.52-18.64 295.94-16.18Q297.36-13.72 297.36-10.60L297.36-10.60Q297.36-7.48 295.94-5.02Q294.52-2.56 292.02-1.16Q289.52 0.24 286.36 0.24L286.36 0.24ZM286.36-3.12Q288.40-3.12 290.02-4.06Q291.64-5 292.56-6.70Q293.48-8.40 293.48-10.60L293.48-10.60Q293.48-12.80 292.56-14.50Q291.64-16.20 290.02-17.12Q288.40-18.04 286.36-18.04L286.36-18.04Q284.32-18.04 282.70-17.12Q281.08-16.20 280.14-14.50Q279.20-12.80 279.20-10.60L279.20-10.60Q279.20-8.40 280.14-6.70Q281.08-5 282.70-4.06Q284.32-3.12 286.36-3.12L286.36-3.12Z M315.20-21.40Q319.24-21.40 321.62-19.06Q324.00-16.72 324.00-12.20L324.00-12.20L324.00 0L320.16 0L320.16-11.76Q320.16-14.84 318.68-16.40Q317.20-17.96 314.44-17.96L314.44-17.96Q311.32-17.96 309.52-16.14Q307.72-14.32 307.72-10.92L307.72-10.92L307.72 0L303.88 0L303.88-21.20L307.56-21.20L307.56-18Q308.72-19.64 310.70-20.52Q312.68-21.40 315.20-21.40L315.20-21.40Z M338.40 0.24Q335.80 0.24 333.40-0.46Q331.00-1.16 329.64-2.24L329.64-2.24L331.24-5.28Q332.64-4.28 334.64-3.68Q336.64-3.08 338.68-3.08L338.68-3.08Q343.72-3.08 343.72-5.96L343.72-5.96Q343.72-6.92 343.04-7.48Q342.36-8.04 341.34-8.30Q340.32-8.56 338.44-8.88L338.44-8.88Q335.88-9.28 334.26-9.80Q332.64-10.32 331.48-11.56Q330.32-12.80 330.32-15.04L330.32-15.04Q330.32-17.92 332.72-19.66Q335.12-21.40 339.16-21.40L339.16-21.40Q341.28-21.40 343.40-20.88Q345.52-20.36 346.88-19.48L346.88-19.48L345.24-16.44Q342.64-18.12 339.12-18.12L339.12-18.12Q336.68-18.12 335.40-17.32Q334.12-16.52 334.12-15.20L334.12-15.20Q334.12-14.16 334.84-13.56Q335.56-12.96 336.62-12.68Q337.68-12.40 339.60-12.04L339.60-12.04Q342.16-11.60 343.74-11.10Q345.32-10.60 346.44-9.40Q347.56-8.20 347.56-6.04L347.56-6.04Q347.56-3.16 345.10-1.46Q342.64 0.24 338.40 0.24L338.40 0.24Z M369.48-21.20L373.32-21.20L373.32 0L369.68 0L369.68-3.20Q368.52-1.56 366.62-0.66Q364.72 0.24 362.48 0.24L362.48 0.24Q358.24 0.24 355.80-2.10Q353.36-4.44 353.36-9L353.36-9L353.36-21.20L357.20-21.20L357.20-9.44Q357.20-6.36 358.68-4.78Q360.16-3.20 362.92-3.20L362.92-3.20Q365.96-3.20 367.72-5.04Q369.48-6.88 369.48-10.24L369.48-10.24L369.48-21.20Z M381.84 0L381.84-29.68L385.68-29.68L385.68 0L381.84 0Z M405.44-4L406.64-1.24Q405.80-0.52 404.56-0.14Q403.32 0.24 402.00 0.24L402.00 0.24Q398.80 0.24 397.04-1.48Q395.28-3.20 395.28-6.40L395.28-6.40L395.28-18.04L391.68-18.04L391.68-21.20L395.28-21.20L395.28-25.84L399.12-25.84L399.12-21.20L405.20-21.20L405.20-18.04L399.12-18.04L399.12-6.56Q399.12-4.84 399.98-3.92Q400.84-3 402.44-3L402.44-3Q404.20-3 405.44-4L405.44-4Z M412.48 0L412.48-21.20L416.32-21.20L416.32 0L412.48 0ZM414.40-25.28Q413.28-25.28 412.54-26Q411.80-26.72 411.80-27.76L411.80-27.76Q411.80-28.80 412.54-29.54Q413.28-30.28 414.40-30.28L414.40-30.28Q415.52-30.28 416.26-29.58Q417.00-28.88 417.00-27.84L417.00-27.84Q417.00-26.76 416.26-26.02Q415.52-25.28 414.40-25.28L414.40-25.28Z M436.16-21.40Q440.20-21.40 442.58-19.06Q444.96-16.72 444.96-12.20L444.96-12.20L444.96 0L441.12 0L441.12-11.76Q441.12-14.84 439.64-16.40Q438.16-17.96 435.40-17.96L435.40-17.96Q432.28-17.96 430.48-16.14Q428.68-14.32 428.68-10.92L428.68-10.92L428.68 0L424.84 0L424.84-21.20L428.52-21.20L428.52-18Q429.68-19.64 431.66-20.52Q433.64-21.40 436.16-21.40L436.16-21.40Z M470.04-21.20L473.68-21.20L473.68-2.88Q473.68 2.68 470.92 5.34Q468.16 8 462.68 8L462.68 8Q459.68 8 456.96 7.18Q454.24 6.36 452.56 4.84L452.56 4.84L454.40 1.88Q455.88 3.16 458.06 3.90Q460.24 4.64 462.56 4.64L462.56 4.64Q466.28 4.64 468.06 2.88Q469.84 1.12 469.84-2.48L469.84-2.48L469.84-4.16Q468.48-2.52 466.50-1.70Q464.52-0.88 462.20-0.88L462.20-0.88Q459.16-0.88 456.70-2.18Q454.24-3.48 452.84-5.82Q451.44-8.16 451.44-11.16L451.44-11.16Q451.44-14.16 452.84-16.50Q454.24-18.84 456.70-20.12Q459.16-21.40 462.20-21.40L462.20-21.40Q464.60-21.40 466.66-20.52Q468.72-19.64 470.04-17.92L470.04-17.92L470.04-21.20ZM462.64-4.24Q464.72-4.24 466.38-5.12Q468.04-6 468.98-7.58Q469.92-9.16 469.92-11.16L469.92-11.16Q469.92-14.24 467.88-16.14Q465.84-18.04 462.64-18.04L462.64-18.04Q459.40-18.04 457.36-16.14Q455.32-14.24 455.32-11.16L455.32-11.16Q455.32-9.16 456.26-7.58Q457.20-6 458.86-5.12Q460.52-4.24 462.64-4.24L462.64-4.24Z"/></g>
</svg>
</g><g opacity="1" transform="rotate(0 400.974 230.4864)">
<svg width="1.9583" height="124.0273" x="400.974" y="230.4864" version="1.1" preserveAspectRatio="none" viewBox="0 0 1.9583 124.0273">
  <rect x="0" y="0" width="1.9583" height="124.0273" class="atBXipXk0bfillColor atBXipXk0bstrokeColor-str" style="stroke-width:0;" rx="0px" ry="0px" />
</svg>
</g></g></svg>